<?xml version="1.0" encoding="iso-8859-1"?>
<!DOCTYPE svg PUBLIC "-//W3C//DTD SVG 1.1 Basic//EN" "http://www.w3.org/Graphics/SVG/1.1/DTD/svg11-basic.dtd">
<svg version="1.1" baseProfile="basic"
   xmlns="http://www.w3.org/2000/svg" xmlns:xlink="http://www.w3.org/1999/xlink" x="0px" y="0px" width="64px" height="64px"
   viewBox="0 0 64 64" xml:space="preserve">
  <path transform="matrix(0.064,0,0,0.064,0,1)" stroke="none" style="fill:#FFFFFF" d="M 800 680 C 800 702 782 719 760 719 C 739 719 721 702 721 680 C 721 658 739 641 760 641 C 782 641 800 658 800 680 M 666 781 L 1000 781 L 1000 579 L 666 579 L 666 781 z M 702 615 L 964 615 L 964 745 L 702 745 L 702 615 z M 0 394 L 0 966 L 1000 966 L 1000 816 L 964 816 L 964 931 L 35 931 L 35 429 L 964 429 L 964 544 L 1000 544 L 1000 394 z M 427 358 L 733 50 L 925 242 L 809 358 L 859 358 L 975 243 L 733 0 L 378 358 z M 499 49 L 576 108 L 601 83 L 492 0 L 229 358 L 272 358 z"/>
</svg>
